<!--?xml version="1.0" standalone="no"?-->
              <svg id="sw-js-blob-svg" viewBox="0 0 100 100" xmlns="http://www.w3.org/2000/svg" version="1.1">
                    <defs> 
                        <linearGradient id="sw-gradient" x1="0" x2="1" y1="1" y2="0">
                            <stop id="stop1" stop-color="rgba(214.843, 20.623, 211.444, 1)" offset="0%"></stop>
                            <stop id="stop2" stop-color="rgba(255, 250.665, 7.343, 0.62)" offset="100%"></stop>
                        </linearGradient>
                    </defs>
                <path fill="url(#sw-gradient)" d="M19.8,-34.3C26.4,-30.6,32.9,-26.7,35.2,-20.9C37.6,-15.2,35.7,-7.6,34.8,-0.5C34,6.6,34.1,13.2,30.8,17.3C27.6,21.4,20.9,23.1,15.2,27.7C9.5,32.3,4.8,39.9,-0.1,40C-4.9,40.1,-9.7,32.7,-13.6,27C-17.4,21.3,-20.1,17.2,-24.2,13C-28.3,8.8,-33.7,4.4,-34,-0.2C-34.3,-4.8,-29.6,-9.6,-26.1,-14.9C-22.7,-20.2,-20.6,-26.1,-16.4,-31.2C-12.3,-36.4,-6.1,-40.9,0.2,-41.3C6.6,-41.7,13.3,-38.1,19.8,-34.3Z" width="100%" height="100%" transform="translate(50 50)" stroke-width="0" style="transition: all 0.3s ease 0s;" stroke="url(#sw-gradient)"></path>
              </svg>